<?xml version="1.0" encoding="UTF-8"?>
<svg id="Layer_2" data-name="Layer 2" xmlns="http://www.w3.org/2000/svg" viewBox="0 0 201 251">
  <g id="Layer_1-2" data-name="Layer 1">
    <g>
      <rect x=".5" y=".5" width="50" height="25" fill="#9cabd7" stroke="#231f20" stroke-miterlimit="10"/>
      <rect x="50.5" y=".5" width="50" height="25" fill="#9cabd7" stroke="#231f20" stroke-miterlimit="10"/>
      <rect x="100.5" y=".5" width="50" height="25" fill="#9cabd7" stroke="#231f20" stroke-miterlimit="10"/>
      <rect x="150.5" y=".5" width="50" height="25" fill="#9cabd7" stroke="#231f20" stroke-miterlimit="10"/>
      <rect x=".5" y="25.5" width="50" height="25" fill="#9cabd7" stroke="#231f20" stroke-miterlimit="10"/>
      <rect x="50.5" y="25.5" width="50" height="25" fill="#9cabd7" stroke="#231f20" stroke-miterlimit="10"/>
      <rect x="100.5" y="25.5" width="50" height="25" fill="#9cabd7" stroke="#231f20" stroke-miterlimit="10"/>
      <rect x="150.5" y="25.5" width="50" height="25" fill="#9cabd7" stroke="#231f20" stroke-miterlimit="10"/>
      <rect x=".5" y="50.5" width="50" height="25" fill="#9cabd7" stroke="#231f20" stroke-miterlimit="10"/>
      <rect x="50.5" y="50.5" width="50" height="25" fill="#9cabd7" stroke="#231f20" stroke-miterlimit="10"/>
      <rect x="100.5" y="50.5" width="50" height="25" fill="#9cabd7" stroke="#231f20" stroke-miterlimit="10"/>
      <rect x="150.5" y="50.5" width="50" height="25" fill="#9cabd7" stroke="#231f20" stroke-miterlimit="10"/>
      <rect x=".5" y="75.5" width="50" height="25" fill="#9cabd7" stroke="#231f20" stroke-miterlimit="10"/>
      <rect x="50.5" y="75.5" width="50" height="25" fill="#9cabd7" stroke="#231f20" stroke-miterlimit="10"/>
      <rect x="100.5" y="75.5" width="50" height="25" fill="#9cabd7" stroke="#231f20" stroke-miterlimit="10"/>
      <rect x="150.5" y="75.5" width="50" height="25" fill="#9cabd7" stroke="#231f20" stroke-miterlimit="10"/>
      <rect x=".5" y="100.5" width="50" height="25" fill="#9cabd7" stroke="#231f20" stroke-miterlimit="10"/>
      <rect x="50.5" y="100.5" width="50" height="25" fill="#9cabd7" stroke="#231f20" stroke-miterlimit="10"/>
      <rect x="100.5" y="100.5" width="50" height="25" fill="#9cabd7" stroke="#231f20" stroke-miterlimit="10"/>
      <rect x="150.5" y="100.5" width="50" height="25" fill="#9cabd7" stroke="#231f20" stroke-miterlimit="10"/>
    </g>
    <rect x=".5" y="200.5" width="50" height="25" fill="#8dc6bb" stroke="#231f20" stroke-miterlimit="10"/>
    <rect x="50.5" y="200.5" width="50" height="25" fill="#8dc6bb" stroke="#231f20" stroke-miterlimit="10"/>
    <rect x="100.5" y="200.5" width="50" height="25" fill="#8dc6bb" stroke="#231f20" stroke-miterlimit="10"/>
    <rect x="150.5" y="200.5" width="50" height="25" fill="#8dc6bb" stroke="#231f20" stroke-miterlimit="10"/>
    <rect x=".5" y="225.5" width="50" height="25" fill="#8dc6bb" stroke="#231f20" stroke-miterlimit="10"/>
    <rect x="50.5" y="225.5" width="50" height="25" fill="#8dc6bb" stroke="#231f20" stroke-miterlimit="10"/>
    <rect x="100.5" y="225.5" width="50" height="25" fill="#8dc6bb" stroke="#231f20" stroke-miterlimit="10"/>
    <rect x="150.5" y="225.5" width="50" height="25" fill="#8dc6bb" stroke="#231f20" stroke-miterlimit="10"/>
    <path d="M104.14,177.72l-.63-39.62c2.23-1.11,3.76-3.4,3.76-6.06s-1.62-5.09-3.96-6.16c-.34-.16-.7-.29-1.07-.39-.56-.15-1.14-.24-1.75-.24s-1.19.09-1.75.24c-.37.1-.72.22-1.07.38-2.34,1.07-3.96,3.42-3.96,6.16s1.63,5.09,3.96,6.16v39.59s-16.67-.26-16.67-.26l19.49,22.96,19.48-22.96-15.84.19Z" fill="#919191" stroke="#231f20" stroke-miterlimit="10"/>
  </g>
</svg>